<svg xmlns="http://www.w3.org/2000/svg" viewBox="0 0 25.4 29.6" width="25.4mm" height="29.6mm"><defs><clipPath id="pk"><path d="M 12.7 0.0 C 19.5 0.0 25.4 2.6 25.4 8.0 C 25.4 15.5 18.6 24.6 14.2 28.4 C 13.3 29.2 12.1 29.2 11.2 28.4 C 6.8 24.6 0.0 15.5 0.0 8.0 C 0.0 2.6 5.9 0.0 12.7 0.0 Z"/></clipPath></defs><path d="M 12.7 0.0 C 19.5 0.0 25.4 2.6 25.4 8.0 C 25.4 15.5 18.6 24.6 14.2 28.4 C 13.3 29.2 12.1 29.2 11.2 28.4 C 6.8 24.6 0.0 15.5 0.0 8.0 C 0.0 2.6 5.9 0.0 12.7 0.0 Z" fill="#0B0F12"/><g clip-path="url(#pk)"><circle cx="12.70" cy="1.00" r="0.2" fill="#17B7AE" opacity="0.85"/><circle cx="14.20" cy="1.05" r="0.2" fill="#17B7AE" opacity="0.85"/><circle cx="15.70" cy="1.19" r="0.2" fill="#17B7AE" opacity="0.85"/><circle cx="17.18" cy="1.43" r="0.2" fill="#17B7AE" opacity="0.85"/><circle cx="18.63" cy="1.80" r="0.2" fill="#17B7AE" opacity="0.85"/><circle cx="20.04" cy="2.32" r="0.2" fill="#17B7AE" opacity="0.85"/><circle cx="21.38" cy="3.01" r="0.2" fill="#17B7AE" opacity="0.85"/><circle cx="22.58" cy="3.91" r="0.2" fill="#17B7AE" opacity="0.85"/><circle cx="23.55" cy="5.04" r="0.2" fill="#17B7AE" opacity="0.85"/><circle cx="24.18" cy="6.40" r="0.2" fill="#17B7AE" opacity="0.85"/><circle cx="24.40" cy="7.89" r="0.2" fill="#17B7AE" opacity="0.85"/><circle cx="24.32" cy="9.38" r="0.2" fill="#17B7AE" opacity="0.85"/><circle cx="24.08" cy="10.87" r="0.2" fill="#17B7AE" opacity="0.85"/><circle cx="23.71" cy="12.32" r="0.2" fill="#17B7AE" opacity="0.85"/><circle cx="23.23" cy="13.75" r="0.2" fill="#17B7AE" opacity="0.85"/><circle cx="22.66" cy="15.14" r="0.2" fill="#17B7AE" opacity="0.85"/><circle cx="22.02" cy="16.50" r="0.2" fill="#17B7AE" opacity="0.85"/><circle cx="21.32" cy="17.82" r="0.2" fill="#17B7AE" opacity="0.85"/><circle cx="20.56" cy="19.12" r="0.2" fill="#17B7AE" opacity="0.85"/><circle cx="19.75" cy="20.39" r="0.2" fill="#17B7AE" opacity="0.85"/><circle cx="18.90" cy="21.62" r="0.2" fill="#17B7AE" opacity="0.85"/><circle cx="18.00" cy="22.83" r="0.2" fill="#17B7AE" opacity="0.85"/><circle cx="7.40" cy="22.83" r="0.2" fill="#17B7AE" opacity="0.85"/><circle cx="6.50" cy="21.62" r="0.2" fill="#17B7AE" opacity="0.85"/><circle cx="5.65" cy="20.39" r="0.2" fill="#17B7AE" opacity="0.85"/><circle cx="4.84" cy="19.12" r="0.2" fill="#17B7AE" opacity="0.85"/><circle cx="4.08" cy="17.82" r="0.2" fill="#17B7AE" opacity="0.85"/><circle cx="3.38" cy="16.50" r="0.2" fill="#17B7AE" opacity="0.85"/><circle cx="2.74" cy="15.14" r="0.2" fill="#17B7AE" opacity="0.85"/><circle cx="2.17" cy="13.75" r="0.2" fill="#17B7AE" opacity="0.85"/><circle cx="1.69" cy="12.32" r="0.2" fill="#17B7AE" opacity="0.85"/><circle cx="1.32" cy="10.87" r="0.2" fill="#17B7AE" opacity="0.85"/><circle cx="1.08" cy="9.38" r="0.2" fill="#17B7AE" opacity="0.85"/><circle cx="1.00" cy="7.89" r="0.2" fill="#17B7AE" opacity="0.85"/><circle cx="1.22" cy="6.40" r="0.2" fill="#17B7AE" opacity="0.85"/><circle cx="1.85" cy="5.04" r="0.2" fill="#17B7AE" opacity="0.85"/><circle cx="2.82" cy="3.91" r="0.2" fill="#17B7AE" opacity="0.85"/><circle cx="4.02" cy="3.01" r="0.2" fill="#17B7AE" opacity="0.85"/><circle cx="5.36" cy="2.32" r="0.2" fill="#17B7AE" opacity="0.85"/><circle cx="6.77" cy="1.80" r="0.2" fill="#17B7AE" opacity="0.85"/><circle cx="8.22" cy="1.43" r="0.2" fill="#17B7AE" opacity="0.85"/><circle cx="9.70" cy="1.19" r="0.2" fill="#17B7AE" opacity="0.85"/><circle cx="11.20" cy="1.05" r="0.2" fill="#17B7AE" opacity="0.85"/><path d="M11.43 25.61 L11.52 25.45 L11.62 25.31 L11.74 25.18 L11.87 25.07 L12.02 24.97 L12.18 24.90 L12.35 24.84 L12.52 24.81 L12.70 24.80 L12.88 24.81 L13.05 24.84 L13.22 24.90 L13.38 24.97 L13.53 25.07 L13.66 25.18 L13.78 25.31 L13.88 25.45 L13.97 25.61" fill="none" stroke="#17B7AE" stroke-width="0.5" stroke-linecap="round" opacity="1.0"/><path d="M10.80 25.31 L10.92 25.08 L11.08 24.87 L11.26 24.67 L11.46 24.50 L11.69 24.36 L11.92 24.25 L12.18 24.17 L12.44 24.12 L12.70 24.10 L12.96 24.12 L13.22 24.17 L13.48 24.25 L13.71 24.36 L13.94 24.50 L14.14 24.67 L14.32 24.87 L14.48 25.08 L14.60 25.31" fill="none" stroke="#17B7AE" stroke-width="0.5" stroke-linecap="round" opacity="0.65"/><path d="M10.16 25.02 L10.33 24.71 L10.54 24.42 L10.78 24.16 L11.05 23.94 L11.35 23.75 L11.67 23.60 L12.00 23.49 L12.35 23.42 L12.70 23.40 L13.05 23.42 L13.40 23.49 L13.73 23.60 L14.05 23.75 L14.35 23.94 L14.62 24.16 L14.86 24.42 L15.07 24.71 L15.24 25.02" fill="none" stroke="#17B7AE" stroke-width="0.5" stroke-linecap="round" opacity="0.4"/><circle cx="12.7" cy="26.2" r="0.65" fill="#17B7AE"/><path transform="translate(4.450 17.000) scale(0.002252 -0.002252)" d="M670 -30Q509 -30 401.0 45.0Q293 120 238.5 249.0Q184 378 184 540Q184 702 238.0 831.0Q292 960 397.0 1035.0Q502 1110 656 1110Q811 1110 926.0 1036.0Q1041 962 1104.5 833.5Q1168 705 1168 540Q1168 378 1105.5 249.0Q1043 120 931.0 45.0Q819 -30 670 -30ZM138 0V1440H412V740H378V0ZM626 212Q714 212 770.0 256.0Q826 300 853.0 374.5Q880 449 880 540Q880 630 852.0 704.5Q824 779 765.5 823.5Q707 868 616 868Q531 868 478.5 827.0Q426 786 402.0 712.0Q378 638 378 540Q378 442 402.0 368.0Q426 294 480.5 253.0Q535 212 626 212Z" fill="#17B7AE"/><path transform="translate(7.170 17.000) scale(0.002252 -0.002252)" d="M278 -480 486 92 490 -76 20 1080H302L618 262H554L868 1080H1140L530 -480Z" fill="#17B7AE"/><path transform="translate(9.647 17.000) scale(0.002252 -0.002252)" d="M642 -30Q476 -30 349.5 41.5Q223 113 151.5 238.5Q80 364 80 526Q80 703 150.0 834.0Q220 965 343.0 1037.5Q466 1110 626 1110Q796 1110 915.0 1030.0Q1034 950 1091.0 805.0Q1148 660 1131 464H862V564Q862 729 809.5 801.5Q757 874 638 874Q499 874 433.5 789.5Q368 705 368 540Q368 389 433.5 306.5Q499 224 626 224Q706 224 763.0 259.0Q820 294 850 360L1122 282Q1061 134 929.5 52.0Q798 -30 642 -30ZM284 464V666H1000V464Z" fill="#17B7AE"/><path transform="translate(13.105 17.000) scale(0.002252 -0.002252)" d="M670 -30Q509 -30 401.0 45.0Q293 120 238.5 249.0Q184 378 184 540Q184 702 238.0 831.0Q292 960 397.0 1035.0Q502 1110 656 1110Q811 1110 926.0 1036.0Q1041 962 1104.5 833.5Q1168 705 1168 540Q1168 378 1105.5 249.0Q1043 120 931.0 45.0Q819 -30 670 -30ZM138 0V1440H412V740H378V0ZM626 212Q714 212 770.0 256.0Q826 300 853.0 374.5Q880 449 880 540Q880 630 852.0 704.5Q824 779 765.5 823.5Q707 868 616 868Q531 868 478.5 827.0Q426 786 402.0 712.0Q378 638 378 540Q378 442 402.0 368.0Q426 294 480.5 253.0Q535 212 626 212Z" fill="#17B7AE"/><path transform="translate(15.825 17.000) scale(0.002252 -0.002252)" d="M278 -480 486 92 490 -76 20 1080H302L618 262H554L868 1080H1140L530 -480Z" fill="#17B7AE"/><path transform="translate(18.302 17.000) scale(0.002252 -0.002252)" d="M642 -30Q476 -30 349.5 41.5Q223 113 151.5 238.5Q80 364 80 526Q80 703 150.0 834.0Q220 965 343.0 1037.5Q466 1110 626 1110Q796 1110 915.0 1030.0Q1034 950 1091.0 805.0Q1148 660 1131 464H862V564Q862 729 809.5 801.5Q757 874 638 874Q499 874 433.5 789.5Q368 705 368 540Q368 389 433.5 306.5Q499 224 626 224Q706 224 763.0 259.0Q820 294 850 360L1122 282Q1061 134 929.5 52.0Q798 -30 642 -30ZM284 464V666H1000V464Z" fill="#17B7AE"/></g></svg>