<svg xmlns="http://www.w3.org/2000/svg" viewBox="0 0 25.4 29.6" width="25.4mm" height="29.6mm"><defs><clipPath id="pk"><path d="M 12.7 0.0 C 19.5 0.0 25.4 2.6 25.4 8.0 C 25.4 15.5 18.6 24.6 14.2 28.4 C 13.3 29.2 12.1 29.2 11.2 28.4 C 6.8 24.6 0.0 15.5 0.0 8.0 C 0.0 2.6 5.9 0.0 12.7 0.0 Z"/></clipPath></defs><path d="M 12.7 0.0 C 19.5 0.0 25.4 2.6 25.4 8.0 C 25.4 15.5 18.6 24.6 14.2 28.4 C 13.3 29.2 12.1 29.2 11.2 28.4 C 6.8 24.6 0.0 15.5 0.0 8.0 C 0.0 2.6 5.9 0.0 12.7 0.0 Z" fill="#0B0F12"/><g clip-path="url(#pk)"><circle cx="12.70" cy="1.60" r="0.2" fill="#17B7AE"/><circle cx="14.19" cy="1.65" r="0.2" fill="#17B7AE"/><circle cx="15.67" cy="1.79" r="0.2" fill="#17B7AE"/><circle cx="17.13" cy="2.04" r="0.2" fill="#17B7AE"/><circle cx="18.57" cy="2.41" r="0.2" fill="#17B7AE"/><circle cx="19.96" cy="2.94" r="0.2" fill="#17B7AE"/><circle cx="21.27" cy="3.65" r="0.2" fill="#17B7AE"/><circle cx="22.42" cy="4.58" r="0.2" fill="#17B7AE"/><circle cx="23.29" cy="5.78" r="0.2" fill="#17B7AE"/><circle cx="23.74" cy="7.19" r="0.2" fill="#17B7AE"/><circle cx="23.78" cy="8.67" r="0.2" fill="#17B7AE"/><circle cx="23.61" cy="10.15" r="0.2" fill="#17B7AE"/><circle cx="23.29" cy="11.60" r="0.2" fill="#17B7AE"/><circle cx="22.85" cy="13.02" r="0.2" fill="#17B7AE"/><circle cx="22.32" cy="14.41" r="0.2" fill="#17B7AE"/><circle cx="21.71" cy="15.77" r="0.2" fill="#17B7AE"/><circle cx="21.04" cy="17.09" r="0.2" fill="#17B7AE"/><circle cx="20.30" cy="18.39" r="0.2" fill="#17B7AE"/><circle cx="19.52" cy="19.65" r="0.2" fill="#17B7AE"/><circle cx="18.69" cy="20.88" r="0.2" fill="#17B7AE"/><circle cx="17.81" cy="22.08" r="0.2" fill="#17B7AE"/><circle cx="16.89" cy="23.25" r="0.2" fill="#17B7AE"/><circle cx="8.51" cy="23.25" r="0.2" fill="#17B7AE"/><circle cx="7.59" cy="22.08" r="0.2" fill="#17B7AE"/><circle cx="6.71" cy="20.88" r="0.2" fill="#17B7AE"/><circle cx="5.88" cy="19.65" r="0.2" fill="#17B7AE"/><circle cx="5.10" cy="18.39" r="0.2" fill="#17B7AE"/><circle cx="4.36" cy="17.09" r="0.2" fill="#17B7AE"/><circle cx="3.69" cy="15.77" r="0.2" fill="#17B7AE"/><circle cx="3.08" cy="14.41" r="0.2" fill="#17B7AE"/><circle cx="2.55" cy="13.02" r="0.2" fill="#17B7AE"/><circle cx="2.11" cy="11.60" r="0.2" fill="#17B7AE"/><circle cx="1.79" cy="10.15" r="0.2" fill="#17B7AE"/><circle cx="1.62" cy="8.67" r="0.2" fill="#17B7AE"/><circle cx="1.66" cy="7.19" r="0.2" fill="#17B7AE"/><circle cx="2.11" cy="5.78" r="0.2" fill="#17B7AE"/><circle cx="2.98" cy="4.58" r="0.2" fill="#17B7AE"/><circle cx="4.13" cy="3.65" r="0.2" fill="#17B7AE"/><circle cx="5.44" cy="2.94" r="0.2" fill="#17B7AE"/><circle cx="6.83" cy="2.41" r="0.2" fill="#17B7AE"/><circle cx="8.27" cy="2.04" r="0.2" fill="#17B7AE"/><circle cx="9.73" cy="1.79" r="0.2" fill="#17B7AE"/><circle cx="11.21" cy="1.65" r="0.2" fill="#17B7AE"/><path d="M11.43 25.61 L11.52 25.45 L11.62 25.31 L11.74 25.18 L11.87 25.07 L12.02 24.97 L12.18 24.90 L12.35 24.84 L12.52 24.81 L12.70 24.80 L12.88 24.81 L13.05 24.84 L13.22 24.90 L13.38 24.97 L13.53 25.07 L13.66 25.18 L13.78 25.31 L13.88 25.45 L13.97 25.61" fill="none" stroke="#17B7AE" stroke-width="0.55" stroke-linecap="round"/><path d="M10.80 25.31 L10.92 25.08 L11.08 24.87 L11.26 24.67 L11.46 24.50 L11.69 24.36 L11.92 24.25 L12.18 24.17 L12.44 24.12 L12.70 24.10 L12.96 24.12 L13.22 24.17 L13.48 24.25 L13.71 24.36 L13.94 24.50 L14.14 24.67 L14.32 24.87 L14.48 25.08 L14.60 25.31" fill="none" stroke="#17B7AE" stroke-width="0.42" stroke-linecap="round"/><path d="M10.16 25.02 L10.33 24.71 L10.54 24.42 L10.78 24.16 L11.05 23.94 L11.35 23.75 L11.67 23.60 L12.00 23.49 L12.35 23.42 L12.70 23.40 L13.05 23.42 L13.40 23.49 L13.73 23.60 L14.05 23.75 L14.35 23.94 L14.62 24.16 L14.86 24.42 L15.07 24.71 L15.24 25.02" fill="none" stroke="#17B7AE" stroke-width="0.3" stroke-linecap="round"/><circle cx="12.7" cy="26.2" r="0.65" fill="#17B7AE"/><g transform="translate(5.032 9.070) rotate(-65.90)"><path transform="translate(-0.712 0) scale(0.000972 -0.000972)" d="M734 -30Q594 -30 471.5 19.5Q349 69 256.5 165.0Q164 261 112.0 400.5Q60 540 60 720Q60 956 148.0 1123.5Q236 1291 389.0 1380.5Q542 1470 734 1470Q1000 1470 1155.5 1346.5Q1311 1223 1366 1000L1120 961Q1079 1089 986.0 1165.5Q893 1242 749 1242Q604 1244 508.0 1179.0Q412 1114 363.5 996.0Q315 878 315 720Q315 562 363.0 445.5Q411 329 507.5 264.0Q604 199 749 197Q858 196 940.0 236.5Q1022 277 1074.0 359.5Q1126 442 1144 566H890V755H1400Q1402 739 1403.0 708.0Q1404 677 1404 671Q1404 467 1323.5 308.5Q1243 150 1093.0 60.0Q943 -30 734 -30Z" fill="#17B7AE"/></g><g transform="translate(5.809 7.697) rotate(-55.12)"><path transform="translate(-0.569 0) scale(0.000972 -0.000972)" d="M140 0V1440H1070V1214H381V859H950V633H381V226H1070V0Z" fill="#17B7AE"/></g><g transform="translate(6.742 6.578) rotate(-45.17)"><path transform="translate(-0.590 0) scale(0.000972 -0.000972)" d="M486 0V1214H20V1440H1193V1214H727V0Z" fill="#17B7AE"/></g><g transform="translate(7.814 5.667) rotate(-35.57)"><path transform="translate(-0.519 0) scale(0.000972 -0.000972)" d="M160 0V1440H401V226H1037V0Z" fill="#17B7AE"/></g><g transform="translate(8.740 5.092) rotate(-28.12)"><path transform="translate(-0.273 0) scale(0.000972 -0.000972)" d="M160 0V1440H401V0Z" fill="#17B7AE"/></g><g transform="translate(9.831 4.605) rotate(-19.97)"><path transform="translate(-0.623 0) scale(0.000972 -0.000972)" d="M464 0 10 1440H258L638 234L1023 1440H1271L817 0Z" fill="#17B7AE"/></g><g transform="translate(11.271 4.222) rotate(-9.80)"><path transform="translate(-0.569 0) scale(0.000972 -0.000972)" d="M140 0V1440H1070V1214H381V859H950V633H381V226H1070V0Z" fill="#17B7AE"/></g><g transform="translate(12.861 4.102) rotate(1.10)"><path transform="translate(-0.729 0) scale(0.000972 -0.000972)" d="M1267 -30 856 379 1007 530 1416 121ZM749 -30Q533 -30 379.0 64.5Q225 159 142.5 328.0Q60 497 60 720Q60 943 142.5 1112.0Q225 1281 379.0 1375.5Q533 1470 749 1470Q965 1470 1119.5 1375.5Q1274 1281 1356.5 1112.0Q1439 943 1439 720Q1439 497 1356.5 328.0Q1274 159 1119.5 64.5Q965 -30 749 -30ZM749 197Q894 196 990.5 261.0Q1087 326 1135.5 444.0Q1184 562 1184 720Q1184 878 1135.5 994.5Q1087 1111 990.5 1176.0Q894 1241 749 1243Q604 1244 508.0 1179.0Q412 1114 363.5 996.0Q315 878 315 720Q315 562 363.0 445.5Q411 329 507.5 264.0Q604 199 749 197Z" fill="#17B7AE"/></g><g transform="translate(14.574 4.312) rotate(12.89)"><path transform="translate(-0.700 0) scale(0.000972 -0.000972)" d="M720 -30Q548 -30 417.5 40.0Q287 110 213.5 237.0Q140 364 140 535V1438L384 1440V541Q384 460 411.5 396.0Q439 332 486.0 287.5Q533 243 594.0 220.0Q655 197 720 197Q787 197 847.5 220.5Q908 244 955.0 288.5Q1002 333 1029.0 397.0Q1056 461 1056 541V1440H1300V535Q1300 364 1226.5 237.0Q1153 110 1022.5 40.0Q892 -30 720 -30Z" fill="#17B7AE"/></g><g transform="translate(16.062 4.802) rotate(23.59)"><path transform="translate(-0.569 0) scale(0.000972 -0.000972)" d="M140 0V1440H1070V1214H381V859H950V633H381V226H1070V0Z" fill="#17B7AE"/></g><g transform="translate(17.093 5.340) rotate(31.53)"><path transform="translate(-0.295 0) scale(0.000972 -0.000972)" d="M180 0V247H427V0Z" fill="#17B7AE"/></g><g transform="translate(18.154 6.111) rotate(40.49)"><path transform="translate(-0.718 0) scale(0.000972 -0.000972)" d="M749 -30Q533 -30 379.0 64.5Q225 159 142.5 328.0Q60 497 60 720Q60 943 142.5 1112.0Q225 1281 379.0 1375.5Q533 1470 749 1470Q998 1470 1164.0 1345.5Q1330 1221 1397 1010L1154 943Q1112 1084 1011.0 1163.5Q910 1243 749 1243Q604 1243 507.5 1178.0Q411 1113 362.5 995.5Q314 878 313 720Q313 562 361.5 444.5Q410 327 507.0 262.0Q604 197 749 197Q910 197 1011.0 277.0Q1112 357 1154 497L1397 430Q1330 219 1164.0 94.5Q998 -30 749 -30Z" fill="#17B7AE"/></g><g transform="translate(19.355 7.375) rotate(52.40)"><path transform="translate(-0.729 0) scale(0.000972 -0.000972)" d="M749 -30Q533 -30 379.0 64.5Q225 159 142.5 328.0Q60 497 60 720Q60 943 142.5 1112.0Q225 1281 379.0 1375.5Q533 1470 749 1470Q965 1470 1119.5 1375.5Q1274 1281 1356.5 1112.0Q1439 943 1439 720Q1439 497 1356.5 328.0Q1274 159 1119.5 64.5Q965 -30 749 -30ZM749 197Q894 196 990.5 261.0Q1087 326 1135.5 444.0Q1184 562 1184 720Q1184 878 1135.5 994.5Q1087 1111 990.5 1176.0Q894 1241 749 1243Q604 1244 508.0 1179.0Q412 1114 363.5 996.0Q315 878 315 720Q315 562 363.0 445.5Q411 329 507.5 264.0Q604 199 749 197Z" fill="#17B7AE"/></g><g transform="translate(20.318 8.961) rotate(65.09)"><path transform="translate(-0.831 0) scale(0.000972 -0.000972)" d="M140 0V1440H357L855 420L1353 1440H1570V0H1345V923L903 0H807L366 923V0Z" fill="#17B7AE"/></g><path transform="translate(5.700 16.954) scale(0.001454 -0.001454)" d="M642 -30Q476 -30 349.5 41.5Q223 113 151.5 238.5Q80 364 80 526Q80 703 150.0 834.0Q220 965 343.0 1037.5Q466 1110 626 1110Q796 1110 915.0 1030.0Q1034 950 1091.0 805.0Q1148 660 1131 464H862V564Q862 729 809.5 801.5Q757 874 638 874Q499 874 433.5 789.5Q368 705 368 540Q368 389 433.5 306.5Q499 224 626 224Q706 224 763.0 259.0Q820 294 850 360L1122 282Q1061 134 929.5 52.0Q798 -30 642 -30ZM284 464V666H1000V464Z" fill="#17B7AE"/><path transform="translate(7.381 16.954) scale(0.001454 -0.001454)" d="M562 -30Q358 -30 232.5 62.5Q107 155 80 324L358 366Q375 290 433.5 247.0Q492 204 582 204Q656 204 696.0 232.5Q736 261 736 312Q736 344 720.0 363.5Q704 383 648.5 402.0Q593 421 476 452Q344 486 265.0 528.0Q186 570 151.0 628.5Q116 687 116 770Q116 874 169.0 950.5Q222 1027 318.5 1068.5Q415 1110 546 1110Q673 1110 771.0 1071.0Q869 1032 929.5 960.0Q990 888 1004 790L726 740Q719 800 674.0 835.0Q629 870 552 876Q477 881 431.5 856.0Q386 831 386 784Q386 756 405.5 737.0Q425 718 486.5 698.0Q548 678 674 646Q797 614 871.5 571.5Q946 529 980.0 469.5Q1014 410 1014 326Q1014 160 894.0 65.0Q774 -30 562 -30Z" fill="#17B7AE"/><path transform="translate(8.885 16.954) scale(0.001454 -0.001454)" d="M670 -30Q509 -30 401.0 45.0Q293 120 238.5 249.0Q184 378 184 540Q184 702 238.0 831.0Q292 960 397.0 1035.0Q502 1110 656 1110Q811 1110 926.0 1036.0Q1041 962 1104.5 833.5Q1168 705 1168 540Q1168 378 1105.5 249.0Q1043 120 931.0 45.0Q819 -30 670 -30ZM138 -480V1080H378V340H412V-480ZM626 212Q714 212 770.0 256.0Q826 300 853.0 374.5Q880 449 880 540Q880 630 852.0 704.5Q824 779 765.5 823.5Q707 868 616 868Q531 868 478.5 827.0Q426 786 402.0 712.0Q378 638 378 540Q378 442 402.0 368.0Q426 294 480.5 253.0Q535 212 626 212Z" fill="#17B7AE"/><path transform="translate(10.613 16.954) scale(0.001454 -0.001454)" d="M140 0V1080H380V816L354 850Q375 906 410.0 952.0Q445 998 496 1028Q535 1052 581.0 1065.5Q627 1079 676.0 1082.5Q725 1086 774 1080V826Q729 840 669.5 835.5Q610 831 562 808Q514 786 481.0 749.5Q448 713 431.0 663.5Q414 614 414 552V0Z" fill="#17B7AE"/><path transform="translate(11.724 16.954) scale(0.001454 -0.001454)" d="M642 -30Q476 -30 349.5 41.5Q223 113 151.5 238.5Q80 364 80 526Q80 703 150.0 834.0Q220 965 343.0 1037.5Q466 1110 626 1110Q796 1110 915.0 1030.0Q1034 950 1091.0 805.0Q1148 660 1131 464H862V564Q862 729 809.5 801.5Q757 874 638 874Q499 874 433.5 789.5Q368 705 368 540Q368 389 433.5 306.5Q499 224 626 224Q706 224 763.0 259.0Q820 294 850 360L1122 282Q1061 134 929.5 52.0Q798 -30 642 -30ZM284 464V666H1000V464Z" fill="#17B7AE"/><path transform="translate(13.405 16.954) scale(0.001454 -0.001454)" d="M562 -30Q358 -30 232.5 62.5Q107 155 80 324L358 366Q375 290 433.5 247.0Q492 204 582 204Q656 204 696.0 232.5Q736 261 736 312Q736 344 720.0 363.5Q704 383 648.5 402.0Q593 421 476 452Q344 486 265.0 528.0Q186 570 151.0 628.5Q116 687 116 770Q116 874 169.0 950.5Q222 1027 318.5 1068.5Q415 1110 546 1110Q673 1110 771.0 1071.0Q869 1032 929.5 960.0Q990 888 1004 790L726 740Q719 800 674.0 835.0Q629 870 552 876Q477 881 431.5 856.0Q386 831 386 784Q386 756 405.5 737.0Q425 718 486.5 698.0Q548 678 674 646Q797 614 871.5 571.5Q946 529 980.0 469.5Q1014 410 1014 326Q1014 160 894.0 65.0Q774 -30 562 -30Z" fill="#17B7AE"/><path transform="translate(14.909 16.954) scale(0.001454 -0.001454)" d="M562 -30Q358 -30 232.5 62.5Q107 155 80 324L358 366Q375 290 433.5 247.0Q492 204 582 204Q656 204 696.0 232.5Q736 261 736 312Q736 344 720.0 363.5Q704 383 648.5 402.0Q593 421 476 452Q344 486 265.0 528.0Q186 570 151.0 628.5Q116 687 116 770Q116 874 169.0 950.5Q222 1027 318.5 1068.5Q415 1110 546 1110Q673 1110 771.0 1071.0Q869 1032 929.5 960.0Q990 888 1004 790L726 740Q719 800 674.0 835.0Q629 870 552 876Q477 881 431.5 856.0Q386 831 386 784Q386 756 405.5 737.0Q425 718 486.5 698.0Q548 678 674 646Q797 614 871.5 571.5Q946 529 980.0 469.5Q1014 410 1014 326Q1014 160 894.0 65.0Q774 -30 562 -30Z" fill="#17B7AE"/><path transform="translate(16.413 16.954) scale(0.001454 -0.001454)" d="M626 -30Q463 -30 340.0 43.0Q217 116 148.5 244.5Q80 373 80 540Q80 709 150.0 837.5Q220 966 343.0 1038.0Q466 1110 626 1110Q789 1110 912.5 1037.0Q1036 964 1105.0 835.5Q1174 707 1174 540Q1174 372 1104.5 243.5Q1035 115 911.5 42.5Q788 -30 626 -30ZM626 224Q757 224 821.5 312.5Q886 401 886 540Q886 684 820.5 770.0Q755 856 626 856Q537 856 480.0 816.0Q423 776 395.5 705.0Q368 634 368 540Q368 395 433.5 309.5Q499 224 626 224Z" fill="#17B7AE"/><path transform="translate(18.150 16.954) scale(0.001454 -0.001454)" d="M394 390Q394 456 409.5 522.0Q425 588 456 642Q481 693 510.5 722.5Q540 752 578.5 783.0Q617 814 670 870Q711 915 724.5 958.5Q738 1002 738 1054Q738 1081 732.5 1106.0Q727 1131 712 1150Q688 1183 648.5 1197.5Q609 1212 564 1212Q530 1212 497.5 1204.0Q465 1196 442 1178Q414 1157 400.5 1125.0Q387 1093 388 1054H100Q112 1161 161.0 1250.0Q210 1339 288 1390Q345 1428 414.0 1448.0Q483 1468 552 1468Q666 1468 767.0 1432.5Q868 1397 934 1316Q978 1265 1002.0 1197.5Q1026 1130 1026 1062Q1026 953 977.0 864.0Q928 775 856 698Q825 665 800.5 640.5Q776 616 756.5 594.5Q737 573 722 550Q694 504 688.0 475.0Q682 446 682 390ZM396 0V288H682V0Z" fill="#17B7AE"/></g></svg>