<svg xmlns="http://www.w3.org/2000/svg" viewBox="0 0 88.9 50.8" width="88.9mm" height="50.8mm"><rect width="88.9" height="50.8" fill="#0B0F12"/><path transform="translate(8.000 18.000) scale(0.002917 -0.002917)" d="M278 -480 486 92 490 -76 20 1080H302L618 262H554L868 1080H1140L530 -480Z" fill="#E8EDF0"/><path transform="translate(11.150 18.000) scale(0.002917 -0.002917)" d="M626 -30Q463 -30 340.0 43.0Q217 116 148.5 244.5Q80 373 80 540Q80 709 150.0 837.5Q220 966 343.0 1038.0Q466 1110 626 1110Q789 1110 912.5 1037.0Q1036 964 1105.0 835.5Q1174 707 1174 540Q1174 372 1104.5 243.5Q1035 115 911.5 42.5Q788 -30 626 -30ZM626 224Q757 224 821.5 312.5Q886 401 886 540Q886 684 820.5 770.0Q755 856 626 856Q537 856 480.0 816.0Q423 776 395.5 705.0Q368 634 368 540Q368 395 433.5 309.5Q499 224 626 224Z" fill="#E8EDF0"/><path transform="translate(14.633 18.000) scale(0.002917 -0.002917)" d="M542 -32Q415 -32 335.0 11.0Q255 54 210.5 120.0Q166 186 147.0 257.5Q128 329 124.0 388.0Q120 447 120 474V1080H396V570Q396 533 400.0 475.5Q404 418 425.0 360.0Q446 302 493.5 263.0Q541 224 628 224Q663 224 703.0 235.0Q743 246 778.0 277.5Q813 309 835.5 370.5Q858 432 858 532L1014 458Q1014 330 962.0 218.0Q910 106 805.5 37.0Q701 -32 542 -32ZM892 0V358H858V1080H1132V0Z" fill="#E8EDF0"/><path transform="translate(18.168 18.000) scale(0.002917 -0.002917)" d="M140 0V1080H380V816L354 850Q375 906 410.0 952.0Q445 998 496 1028Q535 1052 581.0 1065.5Q627 1079 676.0 1082.5Q725 1086 774 1080V826Q729 840 669.5 835.5Q610 831 562 808Q514 786 481.0 749.5Q448 713 431.0 663.5Q414 614 414 552V0Z" fill="#E8EDF0"/><path transform="translate(21.388 18.000) scale(0.002917 -0.002917)" d="M788 0Q676 -21 568.5 -18.5Q461 -16 376.5 19.5Q292 55 248 134Q208 208 206.0 284.5Q204 361 204 458V1380H476V474Q476 411 477.5 360.5Q479 310 498 280Q534 223 613.0 218.0Q692 213 788 226ZM20 870V1080H788V870Z" fill="#E8EDF0"/><path transform="translate(23.803 18.000) scale(0.002917 -0.002917)" d="M542 -32Q415 -32 335.0 11.0Q255 54 210.5 120.0Q166 186 147.0 257.5Q128 329 124.0 388.0Q120 447 120 474V1080H396V570Q396 533 400.0 475.5Q404 418 425.0 360.0Q446 302 493.5 263.0Q541 224 628 224Q663 224 703.0 235.0Q743 246 778.0 277.5Q813 309 835.5 370.5Q858 432 858 532L1014 458Q1014 330 962.0 218.0Q910 106 805.5 37.0Q701 -32 542 -32ZM892 0V358H858V1080H1132V0Z" fill="#E8EDF0"/><path transform="translate(27.338 18.000) scale(0.002917 -0.002917)" d="M876 0V510Q876 547 872.0 604.5Q868 662 847.0 720.0Q826 778 778.5 817.0Q731 856 644 856Q609 856 569.0 845.0Q529 834 494.0 802.5Q459 771 436.5 710.0Q414 649 414 548L258 622Q258 750 310.0 862.0Q362 974 466.5 1043.0Q571 1112 730 1112Q857 1112 937.0 1069.0Q1017 1026 1061.5 960.0Q1106 894 1125.0 822.5Q1144 751 1148.0 692.0Q1152 633 1152 606V0ZM138 0V1080H380V722H414V0Z" fill="#E8EDF0"/><path transform="translate(30.873 18.000) scale(0.002917 -0.002917)" d="M642 -30Q476 -30 349.5 41.5Q223 113 151.5 238.5Q80 364 80 526Q80 703 150.0 834.0Q220 965 343.0 1037.5Q466 1110 626 1110Q796 1110 915.0 1030.0Q1034 950 1091.0 805.0Q1148 660 1131 464H862V564Q862 729 809.5 801.5Q757 874 638 874Q499 874 433.5 789.5Q368 705 368 540Q368 389 433.5 306.5Q499 224 626 224Q706 224 763.0 259.0Q820 294 850 360L1122 282Q1061 134 929.5 52.0Q798 -30 642 -30ZM284 464V666H1000V464Z" fill="#E8EDF0"/><path transform="translate(34.244 18.000) scale(0.002917 -0.002917)" d="M140 0V1080H380V816L354 850Q375 906 410.0 952.0Q445 998 496 1028Q535 1052 581.0 1065.5Q627 1079 676.0 1082.5Q725 1086 774 1080V826Q729 840 669.5 835.5Q610 831 562 808Q514 786 481.0 749.5Q448 713 431.0 663.5Q414 614 414 552V0Z" fill="#E8EDF0"/><path transform="translate(37.464 18.000) scale(0.002917 -0.002917)" d="M578 -30Q429 -30 317.0 45.0Q205 120 142.5 249.0Q80 378 80 540Q80 705 143.5 833.5Q207 962 322.0 1036.0Q437 1110 592 1110Q746 1110 851.0 1035.0Q956 960 1010.0 831.0Q1064 702 1064 540Q1064 378 1009.5 249.0Q955 120 847.0 45.0Q739 -30 578 -30ZM622 212Q713 212 767.5 253.0Q822 294 846.0 368.0Q870 442 870 540Q870 638 846.0 712.0Q822 786 769.5 827.0Q717 868 632 868Q541 868 482.5 823.5Q424 779 396.0 704.5Q368 630 368 540Q368 449 395.0 374.5Q422 300 478.0 256.0Q534 212 622 212ZM870 0V740H836V1440H1110V0Z" fill="#E8EDF0"/><path transform="translate(40.935 18.000) scale(0.002917 -0.002917)" d="M160 1230V1470H432V1230ZM160 0V1080H432V0Z" fill="#E8EDF0"/><path transform="translate(42.487 18.000) scale(0.002917 -0.002917)" d="M642 -30Q476 -30 349.5 41.5Q223 113 151.5 238.5Q80 364 80 526Q80 703 150.0 834.0Q220 965 343.0 1037.5Q466 1110 626 1110Q796 1110 915.0 1030.0Q1034 950 1091.0 805.0Q1148 660 1131 464H862V564Q862 729 809.5 801.5Q757 874 638 874Q499 874 433.5 789.5Q368 705 368 540Q368 389 433.5 306.5Q499 224 626 224Q706 224 763.0 259.0Q820 294 850 360L1122 282Q1061 134 929.5 52.0Q798 -30 642 -30ZM284 464V666H1000V464Z" fill="#E8EDF0"/><path transform="translate(45.858 18.000) scale(0.002917 -0.002917)" d="M562 -30Q358 -30 232.5 62.5Q107 155 80 324L358 366Q375 290 433.5 247.0Q492 204 582 204Q656 204 696.0 232.5Q736 261 736 312Q736 344 720.0 363.5Q704 383 648.5 402.0Q593 421 476 452Q344 486 265.0 528.0Q186 570 151.0 628.5Q116 687 116 770Q116 874 169.0 950.5Q222 1027 318.5 1068.5Q415 1110 546 1110Q673 1110 771.0 1071.0Q869 1032 929.5 960.0Q990 888 1004 790L726 740Q719 800 674.0 835.0Q629 870 552 876Q477 881 431.5 856.0Q386 831 386 784Q386 756 405.5 737.0Q425 718 486.5 698.0Q548 678 674 646Q797 614 871.5 571.5Q946 529 980.0 469.5Q1014 410 1014 326Q1014 160 894.0 65.0Q774 -30 562 -30Z" fill="#E8EDF0"/><path transform="translate(49.866 18.000) scale(0.002917 -0.002917)" d="M1440 0V638Q1440 745 1389.5 804.5Q1339 864 1250 864Q1193 864 1151.0 837.5Q1109 811 1085.5 763.5Q1062 716 1062 654L948 730Q948 841 1000.5 926.0Q1053 1011 1141.5 1058.5Q1230 1106 1338 1106Q1523 1106 1617.5 996.5Q1712 887 1712 710V0ZM138 0V1080H378V722H412V0ZM790 0V638Q790 745 739.5 804.5Q689 864 600 864Q515 864 463.5 805.5Q412 747 412 654L298 734Q298 840 351.0 924.0Q404 1008 493.5 1057.0Q583 1106 694 1106Q821 1106 902.5 1052.0Q984 998 1023.0 908.0Q1062 818 1062 710V0Z" fill="#E8EDF0"/><path transform="translate(55.034 18.000) scale(0.002917 -0.002917)" d="M160 1230V1470H432V1230ZM160 0V1080H432V0Z" fill="#E8EDF0"/><path transform="translate(56.586 18.000) scale(0.002917 -0.002917)" d="M578 -30Q429 -30 317.0 45.0Q205 120 142.5 249.0Q80 378 80 540Q80 705 143.5 833.5Q207 962 322.0 1036.0Q437 1110 592 1110Q746 1110 851.0 1035.0Q956 960 1010.0 831.0Q1064 702 1064 540Q1064 378 1009.5 249.0Q955 120 847.0 45.0Q739 -30 578 -30ZM622 212Q713 212 767.5 253.0Q822 294 846.0 368.0Q870 442 870 540Q870 638 846.0 712.0Q822 786 769.5 827.0Q717 868 632 868Q541 868 482.5 823.5Q424 779 396.0 704.5Q368 630 368 540Q368 449 395.0 374.5Q422 300 478.0 256.0Q534 212 622 212ZM870 0V740H836V1440H1110V0Z" fill="#E8EDF0"/><path transform="translate(60.057 18.000) scale(0.002917 -0.002917)" d="M120 526V736H720V526Z" fill="#E8EDF0"/><path transform="translate(62.332 18.000) scale(0.002917 -0.002917)" d="M562 -30Q358 -30 232.5 62.5Q107 155 80 324L358 366Q375 290 433.5 247.0Q492 204 582 204Q656 204 696.0 232.5Q736 261 736 312Q736 344 720.0 363.5Q704 383 648.5 402.0Q593 421 476 452Q344 486 265.0 528.0Q186 570 151.0 628.5Q116 687 116 770Q116 874 169.0 950.5Q222 1027 318.5 1068.5Q415 1110 546 1110Q673 1110 771.0 1071.0Q869 1032 929.5 960.0Q990 888 1004 790L726 740Q719 800 674.0 835.0Q629 870 552 876Q477 881 431.5 856.0Q386 831 386 784Q386 756 405.5 737.0Q425 718 486.5 698.0Q548 678 674 646Q797 614 871.5 571.5Q946 529 980.0 469.5Q1014 410 1014 326Q1014 160 894.0 65.0Q774 -30 562 -30Z" fill="#E8EDF0"/><path transform="translate(65.348 18.000) scale(0.002917 -0.002917)" d="M642 -30Q476 -30 349.5 41.5Q223 113 151.5 238.5Q80 364 80 526Q80 703 150.0 834.0Q220 965 343.0 1037.5Q466 1110 626 1110Q796 1110 915.0 1030.0Q1034 950 1091.0 805.0Q1148 660 1131 464H862V564Q862 729 809.5 801.5Q757 874 638 874Q499 874 433.5 789.5Q368 705 368 540Q368 389 433.5 306.5Q499 224 626 224Q706 224 763.0 259.0Q820 294 850 360L1122 282Q1061 134 929.5 52.0Q798 -30 642 -30ZM284 464V666H1000V464Z" fill="#E8EDF0"/><path transform="translate(68.719 18.000) scale(0.002917 -0.002917)" d="M788 0Q676 -21 568.5 -18.5Q461 -16 376.5 19.5Q292 55 248 134Q208 208 206.0 284.5Q204 361 204 458V1380H476V474Q476 411 477.5 360.5Q479 310 498 280Q534 223 613.0 218.0Q692 213 788 226ZM20 870V1080H788V870Z" fill="#E8EDF0"/><path transform="translate(71.134 18.000) scale(0.002917 -0.002917)" d="M184 0V272H456V0Z" fill="#E8EDF0"/><path transform="translate(8.000 26.000) scale(0.002917 -0.002917)" d="M278 -480 486 92 490 -76 20 1080H302L618 262H554L868 1080H1140L530 -480Z" fill="#4ECDC4"/><path transform="translate(11.150 26.000) scale(0.002917 -0.002917)" d="M626 -30Q463 -30 340.0 43.0Q217 116 148.5 244.5Q80 373 80 540Q80 709 150.0 837.5Q220 966 343.0 1038.0Q466 1110 626 1110Q789 1110 912.5 1037.0Q1036 964 1105.0 835.5Q1174 707 1174 540Q1174 372 1104.5 243.5Q1035 115 911.5 42.5Q788 -30 626 -30ZM626 224Q757 224 821.5 312.5Q886 401 886 540Q886 684 820.5 770.0Q755 856 626 856Q537 856 480.0 816.0Q423 776 395.5 705.0Q368 634 368 540Q368 395 433.5 309.5Q499 224 626 224Z" fill="#4ECDC4"/><path transform="translate(14.633 26.000) scale(0.002917 -0.002917)" d="M542 -32Q415 -32 335.0 11.0Q255 54 210.5 120.0Q166 186 147.0 257.5Q128 329 124.0 388.0Q120 447 120 474V1080H396V570Q396 533 400.0 475.5Q404 418 425.0 360.0Q446 302 493.5 263.0Q541 224 628 224Q663 224 703.0 235.0Q743 246 778.0 277.5Q813 309 835.5 370.5Q858 432 858 532L1014 458Q1014 330 962.0 218.0Q910 106 805.5 37.0Q701 -32 542 -32ZM892 0V358H858V1080H1132V0Z" fill="#4ECDC4"/><path transform="translate(18.168 26.000) scale(0.002917 -0.002917)" d="M140 0V1080H380V816L354 850Q375 906 410.0 952.0Q445 998 496 1028Q535 1052 581.0 1065.5Q627 1079 676.0 1082.5Q725 1086 774 1080V826Q729 840 669.5 835.5Q610 831 562 808Q514 786 481.0 749.5Q448 713 431.0 663.5Q414 614 414 552V0Z" fill="#4ECDC4"/><path transform="translate(21.388 26.000) scale(0.002917 -0.002917)" d="M788 0Q676 -21 568.5 -18.5Q461 -16 376.5 19.5Q292 55 248 134Q208 208 206.0 284.5Q204 361 204 458V1380H476V474Q476 411 477.5 360.5Q479 310 498 280Q534 223 613.0 218.0Q692 213 788 226ZM20 870V1080H788V870Z" fill="#4ECDC4"/><path transform="translate(23.803 26.000) scale(0.002917 -0.002917)" d="M160 1230V1470H432V1230ZM160 0V1080H432V0Z" fill="#4ECDC4"/><path transform="translate(25.354 26.000) scale(0.002917 -0.002917)" d="M670 -30Q509 -30 401.0 45.0Q293 120 238.5 249.0Q184 378 184 540Q184 702 238.0 831.0Q292 960 397.0 1035.0Q502 1110 656 1110Q811 1110 926.0 1036.0Q1041 962 1104.5 833.5Q1168 705 1168 540Q1168 378 1105.5 249.0Q1043 120 931.0 45.0Q819 -30 670 -30ZM138 -480V1080H378V340H412V-480ZM626 212Q714 212 770.0 256.0Q826 300 853.0 374.5Q880 449 880 540Q880 630 852.0 704.5Q824 779 765.5 823.5Q707 868 616 868Q531 868 478.5 827.0Q426 786 402.0 712.0Q378 638 378 540Q378 442 402.0 368.0Q426 294 480.5 253.0Q535 212 626 212Z" fill="#4ECDC4"/><path transform="translate(28.819 26.000) scale(0.002917 -0.002917)" d="M562 -30Q358 -30 232.5 62.5Q107 155 80 324L358 366Q375 290 433.5 247.0Q492 204 582 204Q656 204 696.0 232.5Q736 261 736 312Q736 344 720.0 363.5Q704 383 648.5 402.0Q593 421 476 452Q344 486 265.0 528.0Q186 570 151.0 628.5Q116 687 116 770Q116 874 169.0 950.5Q222 1027 318.5 1068.5Q415 1110 546 1110Q673 1110 771.0 1071.0Q869 1032 929.5 960.0Q990 888 1004 790L726 740Q719 800 674.0 835.0Q629 870 552 876Q477 881 431.5 856.0Q386 831 386 784Q386 756 405.5 737.0Q425 718 486.5 698.0Q548 678 674 646Q797 614 871.5 571.5Q946 529 980.0 469.5Q1014 410 1014 326Q1014 160 894.0 65.0Q774 -30 562 -30Z" fill="#4ECDC4"/><path transform="translate(32.827 26.000) scale(0.002917 -0.002917)" d="M578 -30Q429 -30 317.0 45.0Q205 120 142.5 249.0Q80 378 80 540Q80 705 143.5 833.5Q207 962 322.0 1036.0Q437 1110 592 1110Q746 1110 851.0 1035.0Q956 960 1010.0 831.0Q1064 702 1064 540Q1064 378 1009.5 249.0Q955 120 847.0 45.0Q739 -30 578 -30ZM622 212Q713 212 767.5 253.0Q822 294 846.0 368.0Q870 442 870 540Q870 638 846.0 712.0Q822 786 769.5 827.0Q717 868 632 868Q541 868 482.5 823.5Q424 779 396.0 704.5Q368 630 368 540Q368 449 395.0 374.5Q422 300 478.0 256.0Q534 212 622 212ZM870 0V740H836V1440H1110V0Z" fill="#4ECDC4"/><path transform="translate(36.297 26.000) scale(0.002917 -0.002917)" d="M626 -30Q463 -30 340.0 43.0Q217 116 148.5 244.5Q80 373 80 540Q80 709 150.0 837.5Q220 966 343.0 1038.0Q466 1110 626 1110Q789 1110 912.5 1037.0Q1036 964 1105.0 835.5Q1174 707 1174 540Q1174 372 1104.5 243.5Q1035 115 911.5 42.5Q788 -30 626 -30ZM626 224Q757 224 821.5 312.5Q886 401 886 540Q886 684 820.5 770.0Q755 856 626 856Q537 856 480.0 816.0Q423 776 395.5 705.0Q368 634 368 540Q368 395 433.5 309.5Q499 224 626 224Z" fill="#4ECDC4"/><path transform="translate(39.780 26.000) scale(0.002917 -0.002917)" d="M876 0V510Q876 547 872.0 604.5Q868 662 847.0 720.0Q826 778 778.5 817.0Q731 856 644 856Q609 856 569.0 845.0Q529 834 494.0 802.5Q459 771 436.5 710.0Q414 649 414 548L258 622Q258 750 310.0 862.0Q362 974 466.5 1043.0Q571 1112 730 1112Q857 1112 937.0 1069.0Q1017 1026 1061.5 960.0Q1106 894 1125.0 822.5Q1144 751 1148.0 692.0Q1152 633 1152 606V0ZM138 0V1080H380V722H414V0Z" fill="#4ECDC4"/><path transform="translate(43.315 26.000) scale(0.002917 -0.002917)" d="M120 1080V1440H392V1080Z" fill="#4ECDC4"/><path transform="translate(44.750 26.000) scale(0.002917 -0.002917)" d="M788 0Q676 -21 568.5 -18.5Q461 -16 376.5 19.5Q292 55 248 134Q208 208 206.0 284.5Q204 361 204 458V1380H476V474Q476 411 477.5 360.5Q479 310 498 280Q534 223 613.0 218.0Q692 213 788 226ZM20 870V1080H788V870Z" fill="#4ECDC4"/><path transform="translate(47.165 26.000) scale(0.002917 -0.002917)" d="M184 0V272H456V0Z" fill="#4ECDC4"/><path d="M69.29 29.80 L69.50 29.40 L69.74 29.02 L70.02 28.66 L70.32 28.32 L70.66 28.02 L71.02 27.74 L71.40 27.50 L71.80 27.29 L72.22 27.11 L72.65 26.98 L73.10 26.88 L73.55 26.82 L74.00 26.80 L74.45 26.82 L74.90 26.88 L75.35 26.98 L75.78 27.11 L76.20 27.29 L76.60 27.50 L76.98 27.74 L77.34 28.02 L77.68 28.32 L77.98 28.66 L78.26 29.02 L78.50 29.40 L78.71 29.80" fill="none" stroke="#17B7AE" stroke-width="1.30" stroke-linecap="round"/><path d="M67.11 28.79 L67.42 28.20 L67.77 27.64 L68.18 27.11 L68.63 26.63 L69.11 26.18 L69.64 25.77 L70.20 25.42 L70.79 25.11 L71.40 24.86 L72.03 24.66 L72.68 24.52 L73.34 24.43 L74.00 24.40 L74.66 24.43 L75.32 24.52 L75.97 24.66 L76.60 24.86 L77.21 25.11 L77.80 25.42 L78.36 25.77 L78.89 26.18 L79.37 26.63 L79.82 27.11 L80.23 27.64 L80.58 28.20 L80.89 28.79" fill="none" stroke="#17B7AE" stroke-width="1.01" stroke-linecap="round"/><path d="M64.94 27.77 L65.34 27.00 L65.81 26.26 L66.34 25.57 L66.93 24.93 L67.57 24.34 L68.26 23.81 L69.00 23.34 L69.77 22.94 L70.58 22.60 L71.41 22.34 L72.26 22.15 L73.13 22.04 L74.00 22.00 L74.87 22.04 L75.74 22.15 L76.59 22.34 L77.42 22.60 L78.23 22.94 L79.00 23.34 L79.74 23.81 L80.43 24.34 L81.07 24.93 L81.66 25.57 L82.19 26.26 L82.66 27.00 L83.06 27.77" fill="none" stroke="#17B7AE" stroke-width="0.73" stroke-linecap="round"/><circle cx="74" cy="32" r="2.4" fill="#17B7AE"/><path transform="translate(8.000 42.000) scale(0.002222 -0.002222)" d="M160 0V1440H432V254H1052V0Z" fill="#E8EDF0"/><path transform="translate(10.271 42.000) scale(0.002222 -0.002222)" d="M160 1230V1470H432V1230ZM160 0V1080H432V0Z" fill="#E8EDF0"/><path transform="translate(11.453 42.000) scale(0.002222 -0.002222)" d="M432 0 40 1080H312L568 332L824 1080H1096L704 0Z" fill="#E8EDF0"/><path transform="translate(13.844 42.000) scale(0.002222 -0.002222)" d="M642 -30Q476 -30 349.5 41.5Q223 113 151.5 238.5Q80 364 80 526Q80 703 150.0 834.0Q220 965 343.0 1037.5Q466 1110 626 1110Q796 1110 915.0 1030.0Q1034 950 1091.0 805.0Q1148 660 1131 464H862V564Q862 729 809.5 801.5Q757 874 638 874Q499 874 433.5 789.5Q368 705 368 540Q368 389 433.5 306.5Q499 224 626 224Q706 224 763.0 259.0Q820 294 850 360L1122 282Q1061 134 929.5 52.0Q798 -30 642 -30ZM284 464V666H1000V464Z" fill="#E8EDF0"/><path transform="translate(16.413 42.000) scale(0.002222 -0.002222)" d="M1266 -30 846 388 1014 556 1432 138ZM758 -30Q542 -30 385.5 64.0Q229 158 144.5 327.0Q60 496 60 720Q60 944 144.5 1113.0Q229 1282 385.5 1376.0Q542 1470 758 1470Q974 1470 1130.5 1376.0Q1287 1282 1371.5 1113.0Q1456 944 1456 720Q1456 496 1371.5 327.0Q1287 158 1130.5 64.0Q974 -30 758 -30ZM758 226Q895 224 986.0 285.0Q1077 346 1122.5 458.0Q1168 570 1168 720Q1168 870 1122.5 980.0Q1077 1090 986.0 1151.0Q895 1212 758 1214Q621 1216 530.0 1155.0Q439 1094 393.5 982.0Q348 870 348 720Q348 570 393.5 460.0Q439 350 530.0 289.0Q621 228 758 226Z" fill="#E8EDF0"/><path transform="translate(19.649 42.000) scale(0.002222 -0.002222)" d="M542 -32Q415 -32 335.0 11.0Q255 54 210.5 120.0Q166 186 147.0 257.5Q128 329 124.0 388.0Q120 447 120 474V1080H396V570Q396 533 400.0 475.5Q404 418 425.0 360.0Q446 302 493.5 263.0Q541 224 628 224Q663 224 703.0 235.0Q743 246 778.0 277.5Q813 309 835.5 370.5Q858 432 858 532L1014 458Q1014 330 962.0 218.0Q910 106 805.5 37.0Q701 -32 542 -32ZM892 0V358H858V1080H1132V0Z" fill="#E8EDF0"/><path transform="translate(22.342 42.000) scale(0.002222 -0.002222)" d="M642 -30Q476 -30 349.5 41.5Q223 113 151.5 238.5Q80 364 80 526Q80 703 150.0 834.0Q220 965 343.0 1037.5Q466 1110 626 1110Q796 1110 915.0 1030.0Q1034 950 1091.0 805.0Q1148 660 1131 464H862V564Q862 729 809.5 801.5Q757 874 638 874Q499 874 433.5 789.5Q368 705 368 540Q368 389 433.5 306.5Q499 224 626 224Q706 224 763.0 259.0Q820 294 850 360L1122 282Q1061 134 929.5 52.0Q798 -30 642 -30ZM284 464V666H1000V464Z" fill="#E8EDF0"/></svg>